<?xml version="1.0" standalone="no"?>
<!DOCTYPE svg PUBLIC "-//W3C//DTD SVG 20010904//EN"
 "http://www.w3.org/TR/2001/REC-SVG-20010904/DTD/svg10.dtd">
<svg version="1.0" xmlns="http://www.w3.org/2000/svg"
 width="300.000000pt" height="300.000000pt" viewBox="0 0 300.000000 300.000000"
 preserveAspectRatio="xMidYMid meet">
<metadata>
Created by potrace 1.11, written by Peter Selinger 2001-2013
</metadata>
<g transform="translate(0.000000,300.000000) scale(0.100000,-0.100000)"
fill="#000000" stroke="none">
<path d="M2322 2174 c-182 -32 -333 -107 -451 -225 -275 -276 -255 -771 42
-1020 59 -49 187 -123 235 -135 10 -2 44 -10 77 -19 90 -22 119 -25 229 -26
130 -1 231 11 393 46 13 3 29 18 37 33 24 47 108 301 102 310 -3 5 -20 15 -38
23 -28 11 -33 11 -42 -5 -123 -209 -230 -294 -382 -304 -225 -14 -418 141
-486 393 -71 262 -27 529 115 699 123 146 338 193 512 111 62 -30 132 -106
170 -187 19 -40 35 -78 35 -86 0 -10 10 -12 36 -7 51 8 52 10 44 57 -5 24 -11
72 -15 108 -4 35 -12 94 -19 129 l-12 65 -49 13 c-163 42 -384 53 -533 27z"/>
<path d="M58 2154 c-2 -2 -2 -19 0 -39 3 -25 9 -35 21 -35 10 0 40 -7 68 -15
36 -11 53 -22 64 -42 11 -23 14 -123 15 -531 1 -314 -2 -517 -8 -542 -13 -52
-45 -76 -111 -85 -28 -4 -54 -7 -57 -6 -8 3 -17 -42 -12 -62 5 -18 22 -18 376
-14 204 2 387 7 406 11 383 77 589 257 655 571 12 56 14 230 4 275 -6 25 -12
52 -14 60 -16 75 -76 180 -142 252 -74 78 -204 152 -305 172 -13 3 -48 10 -78
17 -51 11 -872 24 -882 13z m754 -105 c260 -72 389 -339 344 -709 -9 -68 -50
-190 -84 -249 -35 -61 -120 -141 -178 -170 -104 -52 -267 -65 -322 -24 -58 43
-57 31 -57 600 0 414 3 525 13 535 39 39 174 47 284 17z"/>
</g>
</svg>
